<?xml version="1.0" encoding="utf-8"?>
<!-- Generator: Adobe Illustrator 22.1.0, SVG Export Plug-In . SVG Version: 6.00 Build 0)  -->
<svg version="1.1" xmlns="http://www.w3.org/2000/svg" xmlns:xlink="http://www.w3.org/1999/xlink" x="0px" y="0px"
	 viewBox="0 0 24 24" style="enable-background:new 0 0 24 24;" xml:space="preserve">
<style type="text/css">
	.st0{display:none;}
	.st1{display:inline;opacity:0.23;}
	.st2{fill:#EC008C;}
	.st3{display:inline;}
	.st4{fill:none;stroke:#000000;stroke-width:2;stroke-linecap:round;stroke-linejoin:round;stroke-miterlimit:10;}
	.st5{display:inline;fill:none;stroke:#000000;stroke-width:2;stroke-linecap:round;stroke-linejoin:round;stroke-miterlimit:10;}
	.st6{display:inline;fill:none;stroke:#000000;stroke-width:2;stroke-linecap:round;stroke-miterlimit:10;}
	.st7{fill:#2E3337;}
</style>
<g id="bleed" class="st0">
	<g class="st1">
		<path class="st2" d="M21.9976406,2.0023601v19.9952812H2.0023601V2.0023601H21.9976406 M24,0H0v24h24V0L24,0z"/>
	</g>
</g>
<g id="tags__x3C_path_x3E_" class="st0">
	<g class="st3">
		<polyline class="st4" points="6,7 1,12 6,17 		"/>
		<polyline class="st4" points="18,7 23,12 18,17 		"/>
		<line class="st4" x1="9" y1="21" x2="15" y2="3"/>
	</g>
</g>
<g id="tags" class="st0">
	<g class="st3">
		<path d="M6,18c-0.2558594,0-0.5117188-0.0976562-0.7070312-0.2929688l-5-5c-0.390625-0.390625-0.390625-1.0234375,0-1.4140625l5-5
			c0.390625-0.390625,1.0234375-0.390625,1.4140625,0s0.390625,1.0234375,0,1.4140625L2.4140625,12l4.2929688,4.2929688
			c0.390625,0.390625,0.390625,1.0234375,0,1.4140625C6.5117188,17.9023438,6.2558594,18,6,18z"/>
		<path d="M18,18c-0.2558594,0-0.5117188-0.0976562-0.7070312-0.2929688c-0.390625-0.390625-0.390625-1.0234375,0-1.4140625
			L21.5859375,12l-4.2929688-4.2929688c-0.390625-0.390625-0.390625-1.0234375,0-1.4140625s1.0234375-0.390625,1.4140625,0l5,5
			c0.390625,0.390625,0.390625,1.0234375,0,1.4140625l-5,5C18.5117188,17.9023438,18.2558594,18,18,18z"/>
		<path d="M9,22c-0.1044922,0-0.2114258-0.0166016-0.3164062-0.0517578
			c-0.5239258-0.1738281-0.8071289-0.7402344-0.6323242-1.2646484l6.0004883-18
			c0.1748047-0.5234375,0.7363281-0.8081055,1.2646484-0.6323242c0.5234375,0.1748047,0.8066406,0.7412109,0.6318359,1.2651367
			l-5.9995117,18C9.809082,21.7353516,9.4189453,22,9,22z"/>
	</g>
</g>
<g id="brackets__x3C_path_x3E_" class="st0">
	<g class="st3">
		<path class="st4" d="M8,3C5.3187594,3,4.2604017,3.8176124,4.0822582,7.6320248
			c-0.1082821,2.3185444-1.2684977,3.9610949-2.0822563,4.3679743c0.8086755,0.4043379,1.9736936,2.0416222,2.0822263,4.3682985
			C4.2601466,20.1824341,5.317194,21,8,21"/>
		<path class="st4" d="M16.0000019,3c2.6812401,0,3.7395992,0.8176124,3.9177418,4.6320248
			C20.0260258,9.9505692,21.1862411,11.5931196,22,11.999999c-0.8086758,0.4043379-1.9736938,2.0416222-2.0822258,4.3682985
			C19.7398548,20.1824341,18.6828079,21,16.0000019,21"/>
	</g>
</g>
<g id="brackets" class="st0">
	<g class="st3">
		<path d="M8,22c-3.4375,0-4.7241211-1.4619141-4.9169922-5.5849609c-0.0991211-2.1269531-1.171875-3.3417969-1.5302734-3.5205078
			C1.2138672,12.7250977,1,12.3789062,1,12s0.2143555-0.7250977,0.5532227-0.8945312
			c0.472168-0.2363281,1.4384766-1.5507812,1.5297852-3.5200195C3.2758789,3.4614258,4.5625,2,8,2c0.5522461,0,1,0.4477539,1,1
			S8.5522461,4,8,4C6.0952148,4,5.2460938,4.1489258,5.0810547,7.6787109C4.996582,9.4960938,4.3193359,11.0366211,3.5136719,12
			c0.8056641,0.9633789,1.4824219,2.5039062,1.5673828,4.3212891C5.2460938,19.8515625,6.0952148,20,8,20
			c0.5522461,0,1,0.4472656,1,1S8.5522461,22,8,22z"/>
		<path d="M16,22c-0.5527344,0-1-0.4472656-1-1s0.4472656-1,1-1c1.9052734,0,2.7548828-0.1484375,2.9189453-3.6787109
			C19.0039062,14.5039062,19.6806641,12.9633789,20.4863281,12c-0.8056641-0.9633789-1.4824219-2.5039062-1.5673828-4.3212891
			C18.7539062,4.1489258,17.9042969,4,16,4c-0.5527344,0-1-0.4477539-1-1s0.4472656-1,1-1
			c3.4375,0,4.7236328,1.4614258,4.9169922,5.5849609c0.0917969,1.9692383,1.0576172,3.2841797,1.5302734,3.5205078
			C22.7861328,11.2749023,23,11.6210938,23,12s-0.2138672,0.7250977-0.5527344,0.8945312
			c-0.3583984,0.1787109-1.4316406,1.3935547-1.5302734,3.5205078C20.7246094,20.5380859,19.4384766,22,16,22z"/>
	</g>
</g>
<g id="art__x3C_path_x3E_" class="st0">
	<g class="st3">
		<path d="M23.9812679,4.4971576c-0.7217636,0.5585747-1.9689751,0.0578299-2.7273369,0.6447301
			c-0.5555153,0.429328-0.6684971,1.2588196-0.2390842,1.8136835c0.032856,0.0424571,0.7696056,1.0073042,1.8273621,0.1887035
			C23.8919125,6.3319054,24.0661793,4.4314432,23.9812679,4.4971576"/>
	</g>
	<g class="st3">
		<path d="M10.0104904,4.9147797c4.1652002,0,7.5426102,3.3774099,7.5426102,7.5426102S14.1756907,20,10.0104904,20
			c-0.6955996,0-1.2571001-0.5615101-1.2571001-1.2571011c0-0.326849,0.1257105-0.6201687,0.3268499-0.8464489
			c0.19275-0.2178993,0.3184605-0.5112209,0.3184605-0.8296909c0-0.6955891-0.5615005-1.2570992-1.2571001-1.2570992H6.6582203
			c-2.3130698,0-4.19034-1.8772697-4.19034-4.19034C2.4678805,7.91506,5.8452902,4.9147797,10.0104904,4.9147797
			 M10.0104904,2.9147799c-5.2618098,0-9.5426102,3.9048398-9.5426102,8.7045403c0,3.4133701,2.7769699,6.19034,6.19034,6.19034
			h0.2322474c-0.0901737,0.3007126-0.1370773,0.6148567-0.1370773,0.933239C6.7533903,20.5388699,8.2145205,22,10.0104904,22
			c5.2618103,0,9.5426102-4.2807999,9.5426102-9.5426102S15.2723007,2.9147799,10.0104904,2.9147799L10.0104904,2.9147799z"/>
	</g>
	<circle class="st3" cx="12.1056604" cy="8.5276718" r="1.2571017"/>
	<circle class="st3" cx="7.9153218" cy="8.5276718" r="1.2571017"/>
	<circle class="st3" cx="5.4011183" cy="11.8799429" r="1.2571017"/>
	<line class="st5" x1="10.8485594" y1="14.8053312" x2="19.717474" y2="7.9416451"/>
</g>
<g id="art" class="st0">
	<g class="st3">
		<path d="M23.9812622,4.4971313c-0.7217407,0.5585938-1.9689941,0.0578613-2.727356,0.6447144
			c-0.555481,0.4293823-0.668457,1.2588501-0.2390747,1.8137207c0.0328979,0.0424194,0.7695923,1.0073242,1.8273926,0.1887207
			C23.8919067,6.3319092,24.0661621,4.4314575,23.9812622,4.4971313z"/>
		<path d="M19.1099854,7.1499634l-0.7999878,0.6199951c-1.6400146-2.8999634-4.75-4.8599854-8.2999878-4.8599854
			c-5.2600098,0-9.5400391,3.9100342-9.5400391,8.710022c0,3.4099731,2.7700195,6.1900024,6.1900024,6.1900024h0.2300415
			c-0.1500244,0.4899902-0.1900024,1-0.0800171,1.539978c0.3400269,1.7000122,2,2.7299805,3.7299805,2.6400146
			c4.3400269-0.25,8.0599976-3.4299927,8.8500366-7.8300171c0.1199951-0.6499634-0.4200439-1.1400146-0.9899902-1.1400146
			c-0.3600464,0-0.8699951,0.2300415-0.9800415,0.8300171C16.7700195,17.3399658,13.710022,20,10.0100098,20
			C9.3099976,20,8.75,19.4400024,8.75,18.7399902c0-0.3200073,0.1300049-0.6199951,0.3300171-0.8400269
			c0.1900024-0.2199707,0.3200073-0.5099487,0.3200073-0.8299561c0-0.7000122-0.5599976-1.2600098-1.2600098-1.2600098H6.7700195
			c-2.3900146,0-4.3600464-1.9500122-4.3000488-4.3400269c0.0900269-3.6300049,3.4400024-6.5599976,7.5400391-6.5599976
			c2.9299927,0,5.4500122,1.6600342,6.7000122,4.0900269l-6.4700317,5.0100098
			c-0.4400024,0.3399658-0.5200195,0.9699707-0.1799927,1.4099731c0.1900024,0.25,0.4899902,0.3900146,0.789978,0.3900146
			c0.210022,0,0.4300537-0.0700073,0.6100464-0.210022l8.8699951-6.8699951
			c0.4400024-0.3399658,0.5199585-0.960022,0.1799927-1.4000244C20.1699829,6.8900146,19.539978,6.8099976,19.1099854,7.1499634z"/>
		<circle cx="12.1056519" cy="8.5276489" r="1.2570801"/>
		<path d="M6.6582031,8.5276489c0,0.6956177,0.5615234,1.2570801,1.2571411,1.2570801
			c0.6955566,0,1.2570801-0.5614624,1.2570801-1.2570801S8.6109009,7.2705688,7.9153442,7.2705688
			C7.2197266,7.2705688,6.6582031,7.8320312,6.6582031,8.5276489z"/>
		<path d="M4.144043,11.8799438c0,0.6955566,0.5614624,1.2570801,1.2570801,1.2570801s1.2570801-0.5615234,1.2570801-1.2570801
			c0-0.6956177-0.5614624-1.2571411-1.2570801-1.2571411S4.144043,11.1843262,4.144043,11.8799438z"/>
	</g>
</g>
<g id="me__x3C_path_x3E_" class="st0">
	<g class="st3">
		<path class="st4" d="M7.7590113,10.9115257c0,0,1.0304604-0.7876101,1.0304604-2.8624086
			c3.4824696,3.4824696,6.6887016,1.9352465,6.6887016,1.9352465"/>
		<g>
			<path d="M11.9999304,3c7.1507998,0,6.2555304,7.3299303,6.2555304,7.3299303
				c1.1275387,0.0001497,2.0384693,1.0957994,2.0384693,2.4399395c0,1.7052183-1.1815472,2.4350023-2.0804443,2.4350023
				c-0.1488037,0-0.2899952-0.0200272-0.4166565-0.0589323c0,0-0.9075584,5.8540602-5.7967596,5.8540602
				s-5.7968898-5.8542099-5.7968898-5.8542099c-0.1267171,0.0389214-0.2677846,0.0589314-0.4166598,0.0589314
				c-0.8988791,0-2.0804501-0.7299051-2.0804501-2.4350014c0-1.3441401,0.9109302-2.4397898,2.0384703-2.4397898
				C5.7445402,10.3297796,4.8491302,3,11.9999304,3 M11.9999304,1C9.3352003,1,7.2378402,1.84165,5.7660899,3.50157
				C4.217279,5.2484012,3.8041255,7.4425402,3.7227032,8.9274216c-1.2048054,0.7691803-2.0166333,2.2034512-2.0166333,3.8422985
				c0,2.2306738,1.3396986,3.7400723,2.9066601,4.2470551C5.4874835,19.6558399,7.7015843,23,12.0000696,23
				c4.2985106,0,6.5125303-3.344059,7.3872328-5.9830837c1.5669556-0.5069828,2.9066277-2.0163727,2.9066277-4.2470465
				c0-1.6381016-0.8113842-3.0720367-2.0153847-3.8415165c-0.0805283-1.4832788-0.4927979-3.6737342-2.0412159-5.4227834
				C16.7654591,1.8430001,14.6668997,1,11.9999304,1L11.9999304,1z"/>
		</g>
	</g>
</g>
<g id="me" class="st0">
	<g class="st3">
		<path d="M20.2800293,8.9299927C20.2000122,7.4500122,19.789978,5.25,18.2399902,3.5100098C16.7700195,1.8399658,14.6699829,1,12,1
			C9.3400269,1,7.2399902,1.8399658,5.7700195,3.5C4.2199707,5.25,3.7999878,7.4400024,3.7199707,8.9299927
			C2.5200195,9.7000122,1.710022,11.1300049,1.710022,12.7699585c0,2.2300415,1.3399658,3.7400513,2.8999634,4.25
			C5.4899902,19.6599731,7.7000122,23,12,23s6.5100098-3.3400269,7.3900146-5.9800415
			c1.5599976-0.5099487,2.8999634-2.0199585,2.8999634-4.25C22.289978,11.1300049,21.4799805,9.7000122,20.2800293,8.9299927z
			 M18.210022,15.2000122c-0.1500244,0-0.2900391-0.0200195-0.4100342-0.0500488C17.7999878,15.1499634,16.8900146,21,12,21
			s-5.7999878-5.8500366-5.7999878-5.8500366c-0.1199951,0.0300293-0.2600098,0.0500488-0.4100342,0.0500488
			c-0.8999634,0-2.0799561-0.7300415-2.0799561-2.4300537c0-1.3399658,0.9099731-2.4400024,2.0299683-2.4400024
			C5.7399902,10.3299561,4.8499756,3,12,3s6.2600098,7.3299561,6.2600098,7.3299561
			c1.1199951,0,2.0299683,1.1000366,2.0299683,2.4400024C20.289978,14.4799805,19.1099854,15.2000122,18.210022,15.2000122z"/>
		<path d="M15.9099731,10.8800049C15.7800293,10.9500122,12.8699951,12.2999878,9.5,9.9500122
			c-0.3900146,1.1499634-1.0300293,1.6799927-1.1300049,1.7599487c-0.1900024,0.1300049-0.4000244,0.2000122-0.6099854,0.2000122
			c-0.2999878,0-0.6000366-0.1300049-0.7999878-0.3900146c-0.3300171-0.4299927-0.25-1.0499878,0.1699829-1.3899536
			C7.1900024,10.0799561,7.789978,9.5100098,7.789978,8.0499878c0-0.4000244,0.2400513-0.7700195,0.6199951-0.9199829
			C8.7800293,6.9699707,9.210022,7.0599976,9.5,7.3399658c2.9400024,2.9500122,5.5200195,1.7600098,5.539978,1.7399902
			c0.5-0.2399902,1.1000366-0.0299683,1.3400269,0.4700317S16.4099731,10.6499634,15.9099731,10.8800049z"/>
	</g>
</g>
<g id="chat__x3C_path_x3E_" class="st0">
	<g class="st3">
		<path d="M16.3291779,3.9999976c1.9295807,0,3.0985107,0.6647201,3.7850399,1.66289
			c0.86413,1.2563801,1.4906807,7.0199404-0.0339108,9.1744404c-0.7140293,1.0090494-1.9315395,1.6824703-3.9454594,1.6824703
			h-1.9511099l-0.5805998,3.6654606l-3.7771101-3.6654606H7.8788476c-2.0169497,0-3.2354398-0.6720505-3.9496899-1.6793804
			c-1.23999-1.7488003-1.2445199-7.4105501-0.0304799-9.1744604c0.68817-0.9998698,1.8589001-1.6659598,3.7891297-1.6659598
			H16.3291779 M16.3291779,1.9999975H7.6878076c-3.0530596,0-4.6416101,1.3769401-5.4366298,2.5320501
			c-1.7116001,2.4868398-1.6851101,9.0230694,0.0464799,11.465189c0.8159699,1.1507807,2.4466102,2.5225611,5.5811901,2.5225611
			h1.136272l3.195178,3.1007309c0.3791504,0.3679409,0.8810682,0.5647793,1.393096,0.5647793
			c0.2116041,0,0.4248705-0.0335941,0.6320143-0.1026192c0.7083797-0.2360516,1.2262897-0.8470516,1.3430996-1.5845413
			l0.3133659-1.9783497h0.2429743c3.1322498,0,4.7622299-1.3743095,5.5780506-2.5272007
			c2.0780296-2.9365997,1.2905788-9.6581898,0.0491791-11.4631004C20.9684086,3.3755574,19.381588,1.9999975,16.3291779,1.9999975
			L16.3291779,1.9999975z"/>
	</g>
</g>
<g id="chat" class="st0">
	<path class="st3" d="M16.3291779,3.9999976c1.9295807,0,3.0985107,0.6647201,3.7850399,1.66289
		c0.86413,1.2563801,1.4906807,7.0199404-0.0339108,9.1744404c-0.7140293,1.0090494-1.9315395,1.6824703-3.9454594,1.6824703
		h-1.9511099L13.603138,20.185257l-3.7771101-3.6654587H7.8788476c-2.0169497,0-3.2354398-0.6720505-3.9496899-1.6793804
		c-1.23999-1.7488003-1.2445199-7.4105501-0.0304799-9.1744604c0.68817-0.9998698,1.8589001-1.6659598,3.7891297-1.6659598
		H16.3291779 M16.3291779,1.9999975H7.6878076c-3.0530596,0-4.6416101,1.3769401-5.4366298,2.5320501
		c-1.7116001,2.4868398-1.6851101,9.0230694,0.0464799,11.465189c0.8159699,1.1507807,2.4466102,2.5225611,5.5811901,2.5225611
		h1.136272l3.195178,3.100729c0.3791504,0.3679428,0.8810682,0.5647793,1.393096,0.5647793
		c0.2116041,0,0.4248705-0.0335941,0.6320143-0.1026192c0.7083797-0.2360497,1.2262897-0.8470497,1.3430996-1.5845394
		l0.3133659-1.9783497h0.2429743c3.1322498,0,4.7622299-1.3743114,5.5780506-2.5272007
		c2.0780296-2.9365997,1.2905788-9.6581898,0.0491791-11.4631004C20.9684086,3.3755574,19.381588,1.9999975,16.3291779,1.9999975
		L16.3291779,1.9999975z"/>
</g>
<g id="menuclose__x3C_path_x3E_" class="st0">
	<line class="st6" x1="3" y1="3" x2="12" y2="12"/>
	<line class="st6" x1="21" y1="3" x2="3" y2="21"/>
	<line class="st6" x1="21" y1="21" x2="15" y2="15"/>
</g>
<g id="menuclose" class="st0">
	<g class="st3">
		<path d="M21.710022,2.289978c-0.3900146-0.3900146-1.0300293-0.3900146-1.4200439,0L12,10.5799561L3.710022,2.289978
			c-0.3900146-0.3900146-1.0300293-0.3900146-1.4200439,0c-0.3899536,0.3900146-0.3899536,1.0300293,0,1.4199829L10.5800171,12
			L2.289978,20.289978c-0.3899536,0.3900146-0.3899536,1.0300293,0,1.4199829C2.4899902,21.8999634,2.7399902,22,3,22
			s0.5100098-0.1000366,0.710022-0.2900391l18-18C22.0999756,3.3200073,22.0999756,2.6799927,21.710022,2.289978z"/>
		<path d="M15.710022,14.289978c-0.3900146-0.3900146-1.0300293-0.3900146-1.4200439,0
			c-0.3899536,0.3900146-0.3899536,1.0300293,0,1.4199829l6,6C20.4899902,21.8999634,20.7399902,22,21,22
			s0.5100098-0.1000366,0.710022-0.2900391c0.3899536-0.3899536,0.3899536-1.0299683,0-1.4199829L15.710022,14.289978z"/>
	</g>
</g>
<g id="menuopen__x3C_path_x3E_" class="st0">
	<line class="st6" x1="3" y1="3" x2="21" y2="3"/>
	<line class="st6" x1="11" y1="21" x2="21" y2="21"/>
	<line class="st6" x1="3" y1="12" x2="21" y2="12"/>
</g>
<g id="menuopen" class="st0">
	<path class="st3" d="M21,4H3C2.4477539,4,2,3.5522461,2,3s0.4477539-1,1-1h18c0.5527344,0,1,0.4477539,1,1S21.5527344,4,21,4z"/>
	<path class="st3" d="M21,22H11c-0.5522461,0-1-0.4472656-1-1s0.4477539-1,1-1h10c0.5527344,0,1,0.4472656,1,1S21.5527344,22,21,22z
		"/>
	<path class="st3" d="M21,13H3c-0.5522461,0-1-0.4477539-1-1s0.4477539-1,1-1h18c0.5527344,0,1,0.4477539,1,1S21.5527344,13,21,13z"
		/>
</g>
<g id="arrowdown__x3C_path_x3E_" class="st0">
	<g class="st3">
		<polyline class="st4" points="19,14 12,22 5,14 		"/>
		<line class="st4" x1="12" y1="2" x2="12" y2="22"/>
	</g>
</g>
<g id="arrowdown" class="st0">
	<g class="st3">
		<path d="M19.75,14.6599731l-7,8C12.5599976,22.8800049,12.289978,23,12,23s-0.5599976-0.1199951-0.75-0.3400269l-7-8
			C3.8800049,14.2399902,3.9299927,13.6099854,4.3400269,13.25C4.7600098,12.8800049,5.3900146,12.9199829,5.75,13.3399658l5.25,6V2
			c0-0.5499878,0.4500122-1,1-1s1,0.4500122,1,1v17.3399658l5.25-6c0.3599854-0.4199829,0.9899902-0.4599609,1.4099731-0.0899658
			C20.0700073,13.6099854,20.1199951,14.2399902,19.75,14.6599731z"/>
	</g>
</g>
<g id="down__x3C_path_x3E_" class="st0">
	<polyline class="st5" points="22,6.5 12,19 2,6.5 	"/>
</g>
<g id="down_1_" class="st0">
	<path class="st3" d="M12,20c-0.3037109,0-0.5913086-0.1376953-0.7807617-0.375l-10-12.5004883
		c-0.3452148-0.4311523-0.2753906-1.0605469,0.15625-1.4052734c0.4306641-0.3447266,1.0610352-0.2749023,1.4052734,0.15625
		L12,17.3994141l9.21875-11.5239258c0.3466797-0.4306641,0.9736328-0.5014648,1.40625-0.15625
		c0.4306641,0.3447266,0.5009766,0.9741211,0.15625,1.4052734L12.7807617,19.625C12.5913086,19.8623047,12.3037109,20,12,20z"/>
</g>
<g id="logo">
	<g>
		<g>
			<g>
				<path class="st7" d="M11.7308989,9.5036554v4.6058369c0,0.2384939,0.0151157,0.2681656,0.1640348,0.5066586l1.5653238,2.5192995
					v0.0296707H9.6891479v-0.0296707l1.5502081-2.5192995c0.1489182-0.238493,0.1640339-0.2681646,0.1640339-0.5066586V9.23493
					c0-0.238493,0-0.2832813-0.1046906-0.4618711l-1.1924677-2.0568671V6.6859603h3.9653749l2.9811697,6.0519137
					l2.4890671-6.0519137H23v0.0302315l-0.8196125,1.2965989c-0.1046906,0.1489182-0.1192455,0.1937056-0.1192455,0.4321995
					v7.2292662c0,0.2088223,0.014555,0.2536097,0.1192455,0.3879728L23,17.1354504v0.0296707h-5.217186v-0.0296707
					l0.8201714-1.0732212c0.1041298-0.1343632,0.1192455-0.1791506,0.1192455-0.3879728V10.323267
					c0-0.2233772,0.0145569-0.551446,0.0296726-0.849843l-3.2347794,7.8406153h-0.0296717l-3.5180597-7.318841L11.7308989,9.5036554
					z"/>
			</g>
		</g>
		<g>
			<path class="st7" d="M9.913085,6.6859603v0.0292001L9.0925026,7.7895136
				c-0.104208,0.1341333-0.1196165,0.1785965-0.1196165,0.3877802v6.4125919c0,1.6775723-1.477313,2.7241535-3.8325319,2.7241535
				c-1.6622052,0-3.2016463-0.5239849-4.1403542-0.984724l1.4155171-3.0632668h0.0313122l1.4781418,3.4628525
				c0.0611336,0.1389999,0.0916176,0.2001553,0.2147131,0.2161217c0.0924463,0.0145988,0.2001343,0.0145988,0.246026,0.0145988
				c0.6317139,0,1.2465296-0.8304386,1.2465296-2.1855679L5.631743,8.1772938c0-0.2091837-0.0145793-0.2536469-0.1189542-0.3877802
				L4.6922064,6.7151604V6.6859603H9.913085z"/>
		</g>
	</g>
</g>
</svg>
